<?xml version="1.0" encoding="UTF-8" standalone="no"?>
<!-- Created with Inkscape (http://www.inkscape.org/) -->

<svg
   xmlns:dc="http://purl.org/dc/elements/1.1/"
   xmlns:cc="http://creativecommons.org/ns#"
   xmlns:rdf="http://www.w3.org/1999/02/22-rdf-syntax-ns#"
   xmlns:svg="http://www.w3.org/2000/svg"
   xmlns="http://www.w3.org/2000/svg"
   xmlns:sodipodi="http://sodipodi.sourceforge.net/DTD/sodipodi-0.dtd"
   xmlns:inkscape="http://www.inkscape.org/namespaces/inkscape"
   version="1.1"
   id="svg2"
   xml:space="preserve"
   width="700"
   height="700"
   viewBox="0 0 700.00002 700.00001"
   sodipodi:docname="aorus-logo.svg"
   inkscape:version="0.92.4 (5da689c313, 2019-01-14)"
   inkscape:export-filename="C:\Users\suitedoalex\sites\aorus-logo-0.png"
   inkscape:export-xdpi="561.73712"
   inkscape:export-ydpi="561.73712"><metadata
     id="metadata8"><rdf:RDF><cc:Work
         rdf:about=""><dc:format>image/svg+xml</dc:format><dc:type
           rdf:resource="http://purl.org/dc/dcmitype/StillImage" /><dc:title></dc:title></cc:Work></rdf:RDF></metadata><defs
     id="defs6" /><sodipodi:namedview
     pagecolor="#ffffff"
     bordercolor="#666666"
     borderopacity="1"
     objecttolerance="10"
     gridtolerance="10"
     guidetolerance="10"
     inkscape:pageopacity="0"
     inkscape:pageshadow="2"
     inkscape:window-width="1600"
     inkscape:window-height="837"
     id="namedview4"
     showgrid="false"
     inkscape:zoom="0.37834977"
     inkscape:cx="345.27944"
     inkscape:cy="240.45175"
     inkscape:window-x="-8"
     inkscape:window-y="-8"
     inkscape:window-maximized="1"
     inkscape:current-layer="g10" /><g
     id="g10"
     inkscape:groupmode="layer"
     inkscape:label="aorus-seeklogo.com"
     transform="matrix(1.3333333,0,0,-1.3333333,1.3333333,698.66665)"><path
       d="m 282.8068,-113.58845 h 31.02315 c 1.37397,0 2.27326,-1.08191 1.78127,-2.3444 l -6.22608,-15.9727 c -0.58913,-1.51206 -1.38909,-1.54189 -3.1257,-1.54669 l -13.17313,-0.0384 c -2.93962,-0.009 -3.45421,1.00093 -2.63596,2.99448 l 3.63531,8.85839 c 0.47911,1.16728 0.62152,2.62102 -1.33867,2.62102 h -9.94365 c -1.43387,-0.1576 -2.16773,-0.40025 -3.06756,-2.6534 l -13.09027,-32.77824 c -0.94929,-2.37696 0.42656,-3.13111 1.59852,-3.13111 h 9.02371 c 2.043,0 2.77922,-0.0117 4.0366,3.33574 l 4.91475,13.08303 c 1.41358,3.76278 4.9091,4.08775 6.4036,0.38476 l 5.80754,-14.3895 c 0.69764,-1.72841 0.83027,-2.41281 2.63475,-2.41403 l 24.52969,-0.0186 c 0.009,0.0834 -0.0384,0.30967 -0.32291,0.44175 -0.35031,0.16312 -1.08374,0.32431 -1.56079,0.67942 l -3.4988,2.60479 c -1.46868,0.85421 -1.66929,0.95974 -2.99557,0.95974 h -3.4039 c -1.79208,0 -2.18784,0.91588 -2.9096,2.62309 l -3.96758,9.38398 c -0.87931,2.08024 -0.41727,2.53073 2.00186,2.53073 h 4.97265 c 4.95175,0 8.54806,2.48305 10.41402,7.44154 l 5.78032,14.56757 c 1.09443,2.75857 -0.0188,6.98278 -5.38457,6.98278 h -47.1927 c 2.16117,-1.25756 3.98496,-2.68402 5.2797,-4.20575 z m 48.62658,4.20575 c -0.0279,-0.35238 0.15534,-0.52669 0.4963,-0.60986 2.16839,-0.5285 8.9059,-5.47187 7.99902,-7.77149 l -12.24759,-31.05299 c -3.21119,-8.04598 2.68225,-8.76708 4.35762,-8.76246 h 32.39056 c 4.66159,0 8.72887,1.62318 11.39582,8.44903 l 14.07679,36.02885 c 1.06843,2.73469 1.93862,3.71892 -1.88941,3.71892 H 365.3524 c -0.0352,-0.35979 0.10486,-0.59024 0.31361,-0.66496 3.19582,-1.14438 8.52996,-4.90047 8.1161,-8.19204 l -12.75362,-32.34566 c -0.69473,-1.76249 -1.91298,-2.41069 -3.70664,-2.38541 h -14.40104 c -1.84239,0 -1.71578,1.71942 -1.18417,3.09733 l 14.68677,38.07051 c 0.72328,1.87514 0.70366,2.42023 -1.94518,2.42023 z m -152.87411,-21.99672 18.9037,15.82422 c 2.39659,2.00618 6.97068,3.41873 5.01377,-1.39116 l -5.47393,-13.45229 c -1.13526,-2.55644 -1.53308,-2.85347 -3.53975,-2.84812 l -14.46149,0.0391 c -1.51656,0.004 -1.6521,0.81564 -0.4423,1.82829 z m 2.40127,-26.20008 h 18.77258 c 2.04203,0 2.83816,1.60198 3.3827,3.00869 l 16.82139,43.04274 c 0.34721,1.03781 0.36963,2.14537 -2.54343,2.14537 h -20.94469 c -4.57634,0.12345 -5.75875,-0.93915 -6.98101,-1.90892 l -49.49385,-41.58304 c -1.82246,-1.53101 -4.91596,-3.83599 -6.43647,-4.39566 -0.20189,-0.0744 -0.30553,-0.15207 -0.32121,-0.29417 l 13.25491,-0.0191 c 2.10502,-0.003 3.86922,1.15938 6.53945,3.41441 l 16.14287,13.63396 c 2.35388,1.98813 3.95118,2.21736 5.81599,2.19306 H 192.247 c 0.97699,0 2.9596,-0.91533 2.00964,-2.98901 l -4.08144,-8.90882 c -1.27712,-2.78809 -5.45103,-5.32175 -7.86912,-6.43665 -0.63185,-0.29126 -1.32731,-0.68957 -1.34554,-0.90282 z m 46.50381,8.45183 12.95599,32.57312 c 0.90931,2.28602 2.24294,2.63475 4.70241,2.63475 h 12.34371 c 2.68936,0 3.08718,-0.7612 2.41086,-2.48408 l -13.29506,-33.86185 c -0.71745,-1.82774 -1.37925,-2.69678 -4.08757,-2.69678 h -13.65048 c -2.03255,0 -2.44088,1.16716 -1.37986,3.83484 z m 46.62598,32.18854 c 1.02311,2.61962 1.52446,7.92496 -6.3988,7.92496 h -30.21269 c -7.63564,0 -10.05927,-3.63847 -11.39065,-7.06321 l -13.17452,-33.88263 c -1.52409,-3.9202 -0.7824,-7.86524 5.65941,-7.86524 h 28.17899 c 10.06462,0 12.88467,3.88301 15.2256,9.87622 z m 138.18642,3.02103 29.29772,-0.0446 c 2.89739,-0.004 4.4603,3.6457 7.14967,4.13599 0.21252,0.0389 0.51265,0.30997 0.49892,0.444 l -41.24671,0.0291 c -10.30624,0.007 -11.03627,-2.36907 -16.76646,-17.1285 -1.29146,-3.32772 -3.97378,-8.30346 -0.1254,-10.94872 3.39169,-2.33219 23.23167,0.49096 28.37066,-1.31972 0.26216,-3.34776 -3.01464,-11.17989 -5.44465,-13.60023 l -2.56311,-0.67097 -28.53774,0.002 c -4.11103,3.6e-4 -3.03118,-2.87795 -7.42137,-4.049 -0.20219,-0.0539 -0.3799,-0.3048 -0.38081,-0.52249 l 43.68017,0.0267 c 5.01238,0.003 8.74594,2.37679 10.25351,6.11836 l 4.46528,11.08226 c 1.01005,2.50716 -0.383,6.94638 -5.66768,6.92433 l -22.94928,-0.0959 c -2.06159,-0.008 -1.93881,2.01517 -1.36036,3.45663 l 5.54921,13.82394 c 0.46295,1.1533 1.84548,2.33869 3.19843,2.33662 z m -299.84121,-11.56599 -25.332377,-25.8022 -1.36121,-6.08069 18.570937,-13.61469 42.33719,34.55609 -4.98486,7.13442 -12.63977,-2.65832 8.22205,-3.27024 -27.67198,-14.65767 -4.10708,2.67546 z m 40.4075,34.470127 2.47922,6.3016 c 1.19364,3.03396 -0.56022,5.89606 -3.58198,4.66833 l -11.02915,-4.48248 -7.21438,-8.0743 -7.70746,2.15776 14.4248,6.00178 -5.35783,1.38447 c -1.12803,0.2912 -2.38286,0.12121 -3.48452,-0.25833 -5.52528,-1.9035 -64.460817,-25.621877 -63.814997,-26.450937 0.34375,-0.44126 4.40502,0.71381 6.9733,-1.61024 -3.85683,-1.22293 -8.18001,-2.96701 -11.96709,-5.07319 8.4469,0.10431 10.93584,-0.43142 17.77256,-3.90319 -3.5923,-1.10597 -7.29347,-2.60771 -10.47003,-4.24517 3.91229,-0.23178 7.90515,-1.47901 11.49247,-3.49843 0.29709,-8.4802 0.18719,-18.46347 -0.93775,-27.02532 l 68.946277,68.447537 c 1.88321,1.8696 3.11817,1.76814 3.17947,0.0207 l 0.15328,-4.37294 c 0.009,-0.2234 0.0743,-0.16416 0.14381,0.0124"
       style="fill:#1a1a18;fill-opacity:1;fill-rule:evenodd;stroke:none;stroke-width:0.60754663"
       id="path14"
       inkscape:connector-curvature="0"
       inkscape:export-filename="C:\Users\suitedoalex\sites\aorus-logo-4.png"
       inkscape:export-xdpi="74.483932"
       inkscape:export-ydpi="74.483932" /><path
       d="m 283.04147,285.74664 -71.44412,-72.76902 -3.83898,-17.14916 52.37491,-38.39702 119.40213,97.4573 -14.05861,20.12096 -35.64751,-7.49716 23.18827,-9.22294 -78.04228,-41.33851 -11.58302,7.5455 z m 113.95964,97.21489 6.99198,17.77217 c 3.36646,8.55657 -1.57992,16.62846 -10.10209,13.16594 l -31.10498,-12.6418 -20.34652,-22.77165 -21.73708,6.08547 40.68161,16.9266 -15.11044,3.90457 c -3.18124,0.82127 -6.7203,0.34183 -9.82711,-0.72855 -15.5828,-5.36838 -181.79658,-72.26049 -179.97519,-74.59867 0.96946,-1.24447 12.42332,2.01314 19.66654,-4.5413 -10.87727,-3.44898 -23.06979,-8.36775 -33.75035,-14.30772 23.82249,0.29418 30.84194,-1.21672 50.12331,-11.00804 -10.13122,-3.11911 -20.56952,-7.35443 -29.52824,-11.9725 11.03369,-0.65368 22.2946,-4.17119 32.41179,-9.8665 0.83787,-23.91641 0.52793,-52.07186 -2.64471,-76.21854 l 194.44675,193.04015 c 5.31119,5.27278 8.79414,4.98663 8.96689,0.0584 l 0.43233,-12.33285 c 0.0248,-0.63004 0.20955,-0.46298 0.40551,0.0349"
       style="fill:#1a1a18;fill-opacity:1;fill-rule:evenodd;stroke:none;stroke-width:1.71344221"
       id="path14-0"
       inkscape:connector-curvature="0"
       sodipodi:nodetypes="ccccccccccccscccccccccccccccccc"
       inkscape:export-filename="C:\Users\suitedoalex\sites\aorus-logo-5.png"
       inkscape:export-xdpi="100.30736"
       inkscape:export-ydpi="100.30736" /><path
       d="m 252.88248,148.18348 h 27.98511 c 1.23937,0 2.05062,-0.97596 1.6068,-2.11482 l -5.61628,-14.40852 c -0.53154,-1.36399 -1.25311,-1.3909 -2.81966,-1.39523 l -11.88316,-0.0346 c -2.65172,-0.008 -3.11589,0.90291 -2.3778,2.70123 l 3.27934,7.99091 c 0.43218,1.05297 0.56061,2.36435 -1.20761,2.36435 h -8.96982 c -1.29353,-0.14217 -1.95554,-0.36106 -2.76724,-2.39356 L 238.30374,111.3249 c -0.85632,-2.14419 0.38486,-2.82448 1.44209,-2.82448 h 8.14002 c 1.84295,0 2.50707,-0.0105 3.64129,3.00907 l 4.43346,11.80184 c 1.27513,3.3943 4.42835,3.68745 5.77649,0.34708 l 5.23878,-12.98037 c 0.62941,-1.55914 0.74898,-2.17652 2.37682,-2.17762 l 22.1275,-0.0168 c 0.009,0.0752 -0.0345,0.27934 -0.29127,0.39849 -0.31598,0.14714 -0.97762,0.29254 -1.40792,0.61288 l -3.15616,2.34971 c -1.32492,0.77056 -1.50586,0.86576 -2.70227,0.86576 h -3.07053 c -1.61665,0 -1.97357,0.82618 -2.62469,2.36621 l -3.57909,8.46503 c -0.79316,1.87652 -0.3763,2.2829 1.80584,2.2829 h 4.48574 c 4.46681,0 7.71092,2.23989 9.39419,6.7128 l 5.21429,13.14101 c 0.98724,2.48843 -0.0173,6.29897 -4.8573,6.29897 h -42.57128 c 1.94961,-1.13441 3.5948,-2.42118 4.76274,-3.79389 z m 43.86466,3.79389 c -0.0255,-0.31787 0.14008,-0.47511 0.44772,-0.55013 1.95607,-0.47675 8.03374,-4.93603 7.21566,-7.01045 l -11.04824,-28.01204 c -2.89674,-7.25806 2.41963,-7.90853 3.93098,-7.90437 h 29.21862 c 4.20505,0 7.87405,1.46423 10.2798,7.62163 l 12.69831,32.50063 c 0.96372,2.46688 1.74876,3.35473 -1.70438,3.35473 h -20.44107 c -0.0316,-0.32456 0.0946,-0.53244 0.28286,-0.59984 2.88291,-1.03231 7.69469,-4.42058 7.32133,-7.38981 L 323.44405,114.8096 c -0.62671,-1.5899 -1.72563,-2.17462 -3.34371,-2.15182 h -12.99071 c -1.66201,0 -1.54769,1.55104 -1.06827,2.79402 l 13.24856,34.34235 c 0.65247,1.69151 0.63482,2.18322 -1.7547,2.18322 z m -137.90348,-19.84263 17.05249,14.27459 c 2.16191,1.80972 6.28806,3.08394 4.52279,-1.25493 l -4.93788,-12.13493 c -1.02408,-2.3061 -1.38294,-2.57404 -3.19311,-2.56921 l -13.0453,0.0353 c -1.36805,0.004 -1.49032,0.73577 -0.39899,1.64924 z m 2.16612,-23.63436 H 177.944 c 1.84206,0 2.56022,1.44509 3.05144,2.71405 l 15.17411,38.82766 c 0.31321,0.93618 0.33343,1.93528 -2.29436,1.93528 h -18.89363 c -4.12818,0.11136 -5.1948,-0.84718 -6.29737,-1.72198 l -44.64702,-37.51091 c -1.644,-1.38108 -4.43455,-3.46034 -5.80616,-3.96519 -0.18212,-0.0671 -0.27562,-0.13718 -0.28976,-0.26537 l 11.95689,-0.0172 c 1.89887,-0.003 3.49031,1.04584 5.89905,3.08004 l 14.56204,12.29884 c 2.12337,1.79343 3.56425,2.00022 5.24644,1.97829 h 15.58531 c 0.88132,0 2.66977,-0.82569 1.81285,-2.6963 l -3.68176,-8.0364 c -1.15206,-2.51505 -4.91722,-4.8006 -7.09852,-5.80632 -0.56997,-0.26273 -1.19733,-0.62204 -1.21377,-0.81441 z m 41.94979,7.62416 11.68725,29.38331 c 0.82026,2.06215 2.02328,2.37673 4.24191,2.37673 h 11.13492 c 2.42594,0 2.78489,-0.68666 2.1747,-2.24082 l -11.99303,-30.54583 c -0.6472,-1.64876 -1.24419,-2.4327 -3.68729,-2.4327 h -12.31372 c -1.83351,0 -2.20185,1.05287 -1.24474,3.45931 z m 42.06005,29.03639 c 0.92294,2.36309 1.37509,7.14888 -5.77221,7.14888 h -27.25404 c -6.88791,0 -9.07419,-3.28216 -10.2752,-6.37153 l -11.88436,-30.56457 c -1.37484,-3.53631 -0.70578,-7.09502 5.1052,-7.09502 h 25.41948 c 9.079,0 11.62295,3.50276 13.73456,8.90907 z m 124.65404,2.72519 26.4287,-0.0403 c 2.61357,-0.004 4.02352,3.28868 6.44946,3.73096 0.19183,0.0351 0.46252,0.27961 0.45013,0.40052 l -37.20759,0.0262 c -9.29692,0.006 -9.95541,-2.13708 -15.12449,-15.45115 -1.16501,-3.00185 -3.58465,-7.49032 -0.11311,-9.87654 3.05957,-2.1038 20.95655,0.44288 25.59236,-1.19048 0.23651,-3.01992 -2.7194,-10.08507 -4.91146,-12.26839 l -2.31208,-0.60527 -25.74318,0.002 c -3.70843,3.2e-4 -2.73427,-2.59613 -6.69454,-3.6525 -0.18244,-0.0486 -0.34272,-0.27495 -0.34355,-0.47133 l 39.40266,0.0241 c 4.52156,0.003 7.88953,2.14404 9.24937,5.51921 l 4.02803,9.997 c 0.91122,2.26164 -0.3455,6.26613 -5.11267,6.24625 l -20.70186,-0.0865 c -1.8597,-0.008 -1.74899,1.81782 -1.22713,3.11812 l 5.00579,12.4702 c 0.41761,1.04036 1.66472,2.10966 2.88516,2.1078 z"
       style="fill:#1a1a18;fill-opacity:1;fill-rule:evenodd;stroke:none;stroke-width:0.548051"
       id="path14-04"
       inkscape:connector-curvature="0"
       sodipodi:nodetypes="csccccccscccsscccccccccssccssccsccccccccsccscccccsccsccccccccccsccscccccccccscccccccssccssccssccsscccccccccccccccccccccccc"
       inkscape:export-filename="C:\Users\suitedoalex\sites\aorus-logo-5.png"
       inkscape:export-xdpi="100.30736"
       inkscape:export-ydpi="100.30736" /></g></svg>