<svg id="katman_1" data-name="katman 1" xmlns="http://www.w3.org/2000/svg" viewBox="0 0 1133.86 1133.86"><defs><style>.cls-1{fill:#ccc;}.cls-1,.cls-2{fill-rule:evenodd;}.cls-2{fill:#b3b3b3;}</style></defs><title>Çalışma Yüzeyi 1</title><g id="ASUS"><path class="cls-1" d="M679.06,324.53c-1.73.51-2.17,1.28-3.89,2.75-1.37,1.17-2.54,2-3.88,3.16-3.06,2.64-4.85,4.27-7.55,6.53-13.36,11.25-31.49,28.76-44.59,41-20.32,19-38.63,37.35-58.13,56.27-36.77,35.69-78.43,78.55-115.23,113-30.41,28.44-56.49,54-88.27,82.4-12.15,10.87-19.8,20.76-36.34,21.34-27.29.94-63.29-22.29-81.7-32.85-16.08-9.23-58.81-34.36-79.41-35.06l15.09,20.73c10.79,16.47,28.93,52.33,37.65,69.78,29.93,60,70.35,122.74,121.79,164.5a346.55,346.55,0,0,0,41.77,29.76c7.33,4.43,14.8,8.12,23,12.76,2.84,1.61,22.54,10.81,25,10.8-5.4-5.4-10.95-12-15.33-17.17-19.58-23-63.14-67.8-76.23-90.65-11-19.19-13.51-30.94-1.3-50.2,14-22,46.5-49.26,66.92-66.72,49.68-42.5,94.49-81,146.47-121.33,24.63-19.12,50.24-38.62,76.73-57.52,26-18.54,52.1-36.4,79.23-54.33l41-26.07c3.8-2.18,41.11-24.39,41.7-25.13L820,362.12c12.26-6.93,24.17-12.71,37.15-19.7,38.1-20.52,113.76-54,157.12-69.25,14.23-5,27.79-9.77,42.19-14.68L1099.6,245c-3.49-1.79-51.16-2.29-59.94-2.29-35.35,0-57,1-90.78,3.65-25.83,2-73.89,7.34-97.37,13-4.23,1-9.23,1.46-13.49,2.58-8.14,2.14-17.47,3.62-25.8,5.69-17.2,4.29-32.81,9.14-49,14a482.3,482.3,0,0,0-46.57,17c-8.79,3.61-35.36,21.38-37.62,26Z"/><path class="cls-2" d="M1024.31,409.91l31.37-16c10.89-5.18,22.14-11.14,32.39-16.15,20.8-10.16,32.78-43.09,32.47-64.2-3.67.16-18.61,7.24-22.67,8.72-2.78,1-5.36,1.9-8,3-18.53,7.88-43.26,17.18-60.82,25.47-5.1,2.41-10,4.4-15.19,6.61-4.06,1.74-13,5.25-14.65,7.31-5.58-.28-119.09,56-133.24,63.29-20.15,10.42-45.48,22.9-64.84,33.67-2.29,1.28-61.32,32.52-63.67,35.53-3.89.65-44.35,24.67-50.81,28.32-80.06,45.18-168.73,102-245.42,154-21.31,14.45-48.54,33.42-70,49.56l-17.19,12.83c-2,1.51-4.31,2.51-5.45,4.77,7.65,6.58,58.3,27.45,70.38,31.81,67.82,24.44,131.29,41.47,202.65,53.71L667,839.1l35.67,3.15-29-2.57c5.54.63,11,1.54,16.44,2.05,8,.76,15.89,1.41,24.11,2.24,15.48,1.55,33.44,2.61,49.35,2.89,19.78.34,30.68,1.35,46.89-5.49a146.09,146.09,0,0,0,32.79-19.57c37.22-28.52,70.33-73.12,96.74-113.49,27.64-42.25,52.54-89.45,74-136.22,10.94-23.81,21.19-48.66,30.85-74,4.89-12.83,9.14-25.22,13.56-38.84,2.44-7.53,11.35-35,12-41.2-10.15,1.39-187.65,97.15-204.54,106.22-22.91,12.3-44.84,25.11-67.07,37.18C777.15,573.2,754.3,587.06,732.81,599c-43.66,24.26-87.63,51.29-131.23,76.54-7.48,4.33-63,36.78-65,39.07,3.73-.6,179.75-76.2,184-78,8.3-3.43,181.13-77.6,184-77.72-1,4-11.69,24-14.39,29.84-4.5,9.78-9.92,20.91-14.84,30.64-27.87,55.13-58.12,121.33-119,145.77l-3.65,2.2c-3.26.07-12.17,3.69-16.1,4.77-5.92,1.62-11.63,2.75-17.6,4-28,5.75-70.44,2.75-99.67-1.82-33.33-5.21-56.67-11.07-89-18.87-7.71-1.87-63.45-17.53-66.67-19.65,1.81-3.17,33.69-23.6,36.48-25.54C561.87,667.38,664.33,604.38,731,566.47c7-4,13.61-7.66,20-11.35,5.36-3.08,15.18-8.2,19.51-11.34l31.17-17.1c10.54-5.85,20.22-10.92,31.33-17.26,21-12,42.26-22,62.92-33.65,3-1.71,121-63.71,128.37-65.86Z"/><path class="cls-1" d="M222.25,733.53c-1.22-2.6-22.53-25.21-26.76-29.93-26.87-30-52.91-58-79.92-89.46C96.76,592.18,80,572,64,552.55c-6.69-8.12-43.41-54.21-49-63.61-.71,1.81,8.53,39.59,9.9,44.55,2.09,7.62,3.71,14.56,5.84,22.33,20.87,76,41.72,104.71,113.56,141.42,8.85,4.52,73.19,35.64,78,36.29Z"/></g></svg>