<svg id="katman_1" data-name="katman 1" xmlns="http://www.w3.org/2000/svg" viewBox="0 0 1133.86 1133.86"><defs><style>.cls-1{fill:#e1061c;}.cls-1,.cls-2,.cls-3{fill-rule:evenodd;}.cls-2{fill:#1d1d1b;}.cls-3{fill:#fff;}</style></defs><title>Ati</title><g id="Ati"><polygon class="cls-1" points="25.4 78.25 1101.51 78.25 1101.51 838.72 25.4 838.72 25.4 78.25 25.4 78.25"/><path class="cls-2" d="M793.62,894.69h77.51a47.23,47.23,0,0,1,47.37,47.37v81.39c0,26.26-21.1,47.8-47.37,47.8H793.62a48,48,0,0,1-47.8-47.8V942.06c0-26.27,21.53-47.37,47.8-47.37Zm-768.22,0H153.3c71,0,69.76,99.91,7.75,99.91h-8.61l55.11,75.79-54.25.86L75.36,964h71.05c10.76,0,19.37-7.32,19.37-16.79,0-9.05-8.61-16.8-19.37-16.8h-62c-14.21,0-15.07,6-15.07,17.23V1017c0,28.42-20.67,54.26-43.93,54.26V894.69Zm907.31,0H1055c28,0,46.94,18.95,46.94,47.37v129.19c-13.35,0-46.51-18.09-46.51-50.39V945.51c0-8.18-5.59-15.08-11.62-15.08h-53c-6,0-12.92,6.9-12.92,15.08v72.34c0,28.85-31.43,53.4-45.21,53.4V894.69Zm-627,138.23H250.18c-9.9,0-18.08-8.18-18.08-17.66a18.19,18.19,0,0,1,18.08-18.08h55.56c9.47,0,17.65,8.18,17.65,18.08a18,18,0,0,1-17.65,17.66Zm59,38.33V942.06c0-26.27-21.53-47.37-47.8-47.37H205c0,15.51,12.06,35.74,41.77,35.74h56.84C322.1,930.43,326,943.35,326,964H245c-68,0-67.18,107.23,0,107.23ZM620.94,930.43h56.84a17.1,17.1,0,0,1,16.8,16.8A16.81,16.81,0,0,1,677.78,964H620.94a16.54,16.54,0,0,1-16.79-16.79,16.81,16.81,0,0,1,16.79-16.8Zm-11.62-35.74A47.23,47.23,0,0,0,562,942.06v81.39c0,26.26,21.1,47.8,47.37,47.8h127c0-15.94-12.06-41.34-41.77-41.34H622.66c-18.51,0-18.51-12.06-18.51-25.84h90.43c28.42,0,41.77-27.56,41.77-54.26,0-28.42-19.81-55.12-50-55.12Zm-231.67,0H502.52c26.27,0,47.8,21.1,47.8,47.37v81.39a48,48,0,0,1-47.8,47.8H377.65V964H428v51.24c0,7.76,5.17,14.65,11.63,14.65h53.82c6.46,0,11.63-6.89,11.63-14.65V945.51c0-8.18-5.17-15.08-11.63-15.08H418.12c-26.26,0-40.47-15.5-40.47-35.74Zm427.6,35.74c-6.46,0-11.63,6.9-11.63,15.08v69.75c0,7.76,5.17,14.65,11.63,14.65h53.82c6.46,0,12.06-6.89,12.06-14.65V945.51c0-8.18-5.6-15.08-12.06-15.08Z"/><path class="cls-3" d="M962,165.23c36.17,0,65.45,29.28,65.45,65A65.43,65.43,0,0,1,962,295.71c-35.74,0-65-29.29-65-65.46a65.24,65.24,0,0,1,65-65ZM518.46,446c37.89,0,68.46,31,68.46,68.9a68.09,68.09,0,0,1-68.46,68.47c-38.33,0-69.33-30.14-69.33-68.47,0-37.89,31-68.9,69.33-68.9Zm38.75-301c-34.88,0-61.57,18.09-81.81,38.33l-9.48,9.47-360,356.12c-79.66,78.37,32.3,206.26,114.54,124.45l336.31-332C573.15,324.56,582.19,319,592.52,319c13.35,0,26.7,12.49,26.7,36.6V614.79c0,116.27,165.36,116.27,165.36,0V356.42c0-27.55,11.19-37.46,39.18-37.46H958.11c125.74,0,127.9-174.83,2.16-174.83-140.81,0-262.68.86-403.06.86Zm487,279V620c0,109.38-165.79,109.38-165.79,0V424c0-109.38,165.79-109.38,165.79,0Z"/></g></svg>