<svg id="katman_1" data-name="katman 1" xmlns="http://www.w3.org/2000/svg" viewBox="0 0 1133.86 1133.86"><defs><style>.cls-1{fill:#b3b3b3;}.cls-1,.cls-2{fill-rule:evenodd;}.cls-2{fill:#f7931e;}</style></defs><title>Gigabayt</title><polygon class="cls-1" points="603.31 568.2 324.37 848.04 309.38 913.99 513.87 1061.65 980.06 686.87 925.17 609.49 785.99 638.32 876.52 673.79 571.82 832.76 526.59 803.74 603.31 568.2"/><path class="cls-2" d="M1048.25,194.34l27.3-68.34c13.14-32.91-6.17-63.95-39.44-50.63L914.66,124l-79.44,87.57-84.87-23.4,158.84-65.09-59-15c-12.42-3.16-26.24-1.31-38.37,2.8C751,131.49,102,388.73,109.14,397.72c3.78,4.79,48.5-7.74,76.78,17.47-42.47,13.26-90.07,32.18-131.77,55,93-1.13,120.42,4.68,195.7,42.33a731.06,731.06,0,0,0-115.29,46c43.08,2.52,87,16,126.55,37.95,3.27,92,2.06,200.25-10.33,293.11L1010,147.27c20.74-20.27,34.34-19.17,35-.22l1.69,47.43c.09,2.42.82,1.78,1.58-.14"/></svg>