<svg id="katman_1" data-name="katman 1" xmlns="http://www.w3.org/2000/svg" viewBox="0 0 1133.86 1133.86"><defs><style>.cls-1{fill:#b3b3b3;}.cls-1,.cls-2{fill-rule:evenodd;}.cls-2{fill:#f7931e;}</style></defs><title>Gigabayt</title><polygon class="cls-1" points="605.6 568.28 309.09 865.75 293.16 935.85 510.53 1092.81 1006.08 694.42 947.73 612.17 799.79 642.82 896.02 680.52 572.13 849.5 524.05 818.66 605.6 568.28"/><path class="cls-2" d="M1078.57,170.87l29-72.65c14-35-6.56-68-41.93-53.82L936.57,96.08l-84.45,93.09-90.21-24.88L930.75,95.1,868,79.14c-13.21-3.36-27.9-1.4-40.79,3-64.67,22-754.51,295.4-746.95,305,4,5.08,51.56-8.23,81.62,18.56-45.14,14.1-95.75,34.21-140.07,58.49,98.87-1.2,128,5,208,45a775.71,775.71,0,0,0-122.55,48.94c45.8,2.67,92.53,17.05,134.52,40.33,3.48,97.77,2.19,212.87-11,311.57l807-789.12c22-21.55,36.5-20.39,37.21-.24l1.8,50.42c.1,2.57.87,1.89,1.68-.15"/></svg>