<svg id="katman_1" data-name="katman 1" xmlns="http://www.w3.org/2000/svg" viewBox="0 0 1133.86 1133.86"><defs><style>.cls-1{fill:#0071c5;}</style></defs><title>Intel</title><path id="İntel" class="cls-1" d="M344.51,521.81V696.69H288.84V476.87l114.93.11c48.82,0,65.45,34.43,65.45,65.7v154H413.65V543c0-13.09-6.78-21.15-23.13-21.15Zm378.55-2.63c-19,0-33.75,9.78-39.9,23.06-3.65,8-4.9,14.08-5.33,23.85h85.65c-1.1-23.85-11.91-46.91-40.42-46.91M677.83,604c0,28.48,17.7,49.44,49.31,49.44,24.59,0,36.81-6.82,51-21l34.39,32.83c-22,21.73-45.12,34.93-85.82,34.93-53.29,0-104.29-29.05-104.29-113.74,0-72.36,44.52-113.33,103-113.33,59.3,0,93.57,48,93.57,110.78V604H677.83M575.44,696.41c-45.35,0-64.59-31.57-64.59-62.75V417h55.58v59.89h41.9v44.94h-41.9V630.18c0,12.77,6,19.86,19.29,19.86h22.61v46.37H575.44M239.31,446.49H183.26V393.25h56.05ZM239.45,699c-42-4-56.25-29.49-56.25-58.87l.06-163.26h56.19V699Zm668.07-4.7c-41.89-4-56.1-29.46-56.1-58.8V385.67h56.1Zm196.11-272.53c-50.84-247.86-532-263.55-842.12-74.75v20.84c309.82-159.22,749.21-158.28,789.24,70,13.4,75.49-29.14,154.2-105.11,199.44V696.5c91.44-33.46,185.22-141.94,158-274.73M539.89,855.45c-214,19.78-437.09-11.29-468.29-178.54-15.28-82.45,22.28-169.85,72.11-224.14v-29C54,502.4,5.33,602,33.35,719.64c35.77,150.89,227.2,236.39,519.38,208,115.6-11.28,266.91-48.46,372.1-106.19v-82c-95.45,56.83-253.4,103.84-384.94,116"/></svg>