<svg id="katman_1" data-name="katman 1" xmlns="http://www.w3.org/2000/svg" viewBox="0 0 1133.86 1133.86"><defs><style>.cls-1{fill:#ed1c24;}.cls-2{fill:#b3b3b3;}.cls-3{fill:#ccc;}</style></defs><title>Msi</title><path class="cls-1" d="M586.84,33.45c6,5.2,10.53,11.74,15.47,17.88,34.07,41.35,76.13,76.78,124.89,99.54,15.22,7.21,31.34,13.16,48.27,14.4,13.47,1.14,25.56-7.58,39.08-6.18a55.51,55.51,0,0,1,31.24,13c4.58,12.28,5.36,26.68,15.27,36.37,7.42,8.81,19.77,8.62,30.14,6.66,2.47,7,5.88,15.57,14.4,16.68,8,.2,15.18-4.42,22.82-6.4,5,7,8.32,16.15,16.9,19.63,16.78,8.06,29.95,22.69,37.58,39.53-9.82-10.89-19.89-22-33.55-28.12-.39,21.16,2.51,46-13.35,62.71-.59-13.43-2-27-7.84-39.24-12.09,9.88-23.5,22.17-39.53,25.2,4.88-6.64,12-12.23,14.18-20.48,1.23-6.38-6.28-7.48-10.73-8.46-18.89-2.92-35,9.14-49.9,18.76-2.34-6.67-4.71-13.3-7-20-9.62,3-20.77,5.07-27.3,13.55-4,7.42,3.73,13.5,9.55,16.52,9.95,5.66,21.72,1.5,32.41,3.8,6.93,1.63,11.15,7.87,15.67,12.88.26-5.11.62-10.18,1.08-15.25,12.38,13.72,22.72,29.16,32.08,45.09,12.06-5.72,18.37-17.65,17.39-30.92,4.88,8.75,5.1,18.79,4.78,28.55q4.44-5.43,9.33-10.47c1.56,14.63,1.85,30.33-5,43.79-5.46,10.43-15.67,17.35-26.56,21.22,2.34-8.58,7.38-22.49-4.46-26.23-20.61-4-40.73,4.85-61.14,6.47,11.54-6.47,24.86-12.29,31.76-24.28-.49-1.47-1.53-4.43-2-5.89-10.89-6.69-23.76-9.52-35.56-14.3-6.89-3.38-13.33,1.59-19.6,3.9-11.8-6.57-26.69-7.64-38.49-.49-29.45,20.32-79.22-8.91-71.58-45.21,5.23-19.74,26.52-26.63,43-34.46-15-3.29-32.7-.55-43.33,11.41-8.71,9.1-12,21.65-14.14,33.68a373.49,373.49,0,0,0-174.3-8.75c-56.17,10.44-109.62,38.3-147.65,81.3-38.91,43.47-62.61,98.89-74.41,155.58-14.2,67.81-3.54,140.14,28.51,201.48,8.16,17,19,32.45,28.87,48.47-47.56-38.84-80-93.2-101.88-149.95-7,8.12-6.47,19.27-8.06,29.25-15.44-23.63-13-53.47-8.75-80,9.27-48.37,25.62-95.12,45.58-140-16.64,9.69-28.83,24.84-42.52,38C227.9,435.12,256.08,393.44,285,357c17.75-22.43,38.78-41.9,59.2-61.86-16.58,4.49-32,12.09-48.08,18,33.45-34.55,77.2-57.79,122.26-73.59a466.7,466.7,0,0,1,136.5-24.28c-24.87-5.69-50.23-10.21-75.78-11l-4.55,3.18c-.09-1.82-.32-4,2-4.45,47.14-11.67,96.68-14.47,142-32.9A117.56,117.56,0,0,0,649.09,152c19.41,13.14,39.66,29.2,64.3,29C675,150.2,636.48,118.11,609.21,76.64c-9.21-13.38-18-27.39-22.37-43.19M801.58,190.27c10,13.42,22.33,29,41.32,26.59-2.51-6.8-3.42-15.08-9.53-19.77C822.84,194.49,812,193.45,801.58,190.27Z"/><path class="cls-1" d="M546.63,93.36c31.46,16.71,60.17,38.46,92.8,53.22-7.9,6.37-17.91,18-28.86,10.66C585.12,140.76,565.35,116.86,546.63,93.36Z"/><path class="cls-2" d="M173.74,237.33c25.09-9.06,56,11.12,56.73,38l-10.28,1c-1.23,20,7.8,39,18.34,55.39,1.2-18-2-37.22,7.08-53.8a35.91,35.91,0,0,1,17.07,5.2c7.05-4.32,5.49-13.81,1.3-19.66-4.78-6.44-10.79-11.77-15.7-18,12.58,7.64,25.42,16.28,33.51,28.89,4.78,8.49,5.95,21.23-1.72,28.45-5.07,5.56-16-.26-19.14,7.77-5.76,11.51-3.68,25.26,1.26,36.7,12.39-2.47,21.1-12.06,32.38-16.87-22,22.65-42.88,47-55.2,76.45-.19-8.77,4-19.27-2.11-26.82-11.77-10.82-29.45-10-42.29-19-7.51-5.46-11.74-14-17.95-20.61-5.1-5.1-15.11-3-18.52-9.85-1.56-11.41-.43-25.19-10-33.55-10.14-8.19-24.19-6.6-36.38-7.7,20.09-10.73,46.58-5.11,61.5,11.77,7.06,7.9,6.18,20.57,15.09,27.14,9.23,6.44,19,12.94,30.13,15.47,2.63-15.83-12.16-25.35-16.93-38.91-5.63-14-8.33-31-.43-44.63,1.66-4.45,6.77-10.14,1.24-13.91-8-6.83-19.35-6.4-29-8.88Z"/><path class="cls-2" d="M468.93,329.59a93.86,93.86,0,0,1,9.92-3.19c-24,22-41.28,49.81-60.37,75.91C412,411.87,403.56,422,405.7,434.49c.23,3.83,1.8,10.92,7.19,8.1,11.87-6.21,18.5-18.5,26.88-28.42,5.72,18.5,23.18,29.45,40.51,35.53,29.58,11,61.6,7.09,92.12,3.29C630.85,444.8,690.79,430,739.26,394.8c13.36-8.94,22.46-22.56,35-32.31-3.18,14.82-14,26.23-23.95,37-34.39,33.55-80,52.92-125.81,65.21-44,11.51-89.52,16.41-134.9,17.88-10.56,1.07-22.43,1.59-31,8.68-5.78,4.55-.42,11.8,4,14.95,16,11.47,34,20,52.7,26.13,46.42,16,97,9,143.12-4.38,31.73-9,61.15-24.09,90.57-38.59-35.72,33.09-82.67,51.85-130,60.66-64.23,10.89-130.87,1.66-191.69-20.71-6.6-2-16.78-3.84-20.48,3.77-4.88,11.8,5.46,22,10.08,32.05,18.23,35.83,42.22,70.74,77.46,91.61,13.56,8.48,28.93,13.2,44.21,17.46-25.58.84-49.54-10.44-71.28-22.69-43.92-25.72-72.79-70.38-90.9-116.87,3.32,61.54,42.1,114.66,86.83,154.15.23,7-8.16,7.09-13.1,8.81-20.45,5.3-44.79,5-60.66,20.68-13.88,23.56-13.94,53-29.12,76.1C333,746.66,315.67,693.44,307.57,639.12c-10.11-70.51,4.19-144.52,42.16-205,28.41-45.51,70.7-81.82,119.2-104.51Z"/><path class="cls-3" d="M751.42,446.1c15.77-8.72,29.19-20.78,43.82-31.15-3.71,9.69-12.38,16-19.7,22.82C710.59,496.22,620.74,520,534.83,518.2c-15.93-1.14-34.1-1.37-46.78-12.46-2.79-8.32,8.58-9.33,14.07-9,85.2,3.87,174.66-6.5,249.3-50.67Z"/><path class="cls-2" d="M719.86,535.1c30.06-2.57,61.5,2,88.64,15.7,26.14,13.1,46,37.16,55,64.92-16.18-14.08-40.6-19.31-61.14-13.89-1,6.57,1,12.81,4.25,18.53-27.82,3.32-56.72-7.27-73.49-30.19,12.19,5.52,24.93,13,38.91,10.3,11.05-2.24,22.94-7,29-17.07,4-7.7-3.7-14.46-9.2-18.66-21.7-14.72-47.32-21.74-72-29.64Z"/><path class="cls-3" d="M429.34,543.49c5.72.68,12.58.29,16.45,5.52,25.45,32.54,66.15,48.64,105.72,55.72,30.16,6.18,61,6.86,91.73,6-50.49,12.91-105.78,10.44-153.95-10.24-21.59-9.26-41.78-23.14-55.62-42.36C430.38,554,430.42,548.4,429.34,543.49Z"/><path class="cls-1" d="M718.33,611.56c-9.24-14.92-12.39-33.94-7.93-50.91,3,19.44,10,39.56,25.94,52.21,19.67,16.06,46.58,19.44,71.16,17.49,34.71-3.42,69.56-9.79,104.57-6.9,16.29,1.66,29.94,12.75,37.58,26.82,6.85,12.91,13.85,26.14,17.36,40.41,2.86,17.26-11.87,29.84-15.48,45.67-6.76,26.88-6.69,55.49-17.62,81.3-6.37,15.21-20.61,25-29.16,38.75-16.22,25.62-23.92,55.36-30.13,84.71-3,13.75-8.58,28.25-21.19,35.89-22.66,14-50.49,14.92-74.06,26.85-22.78,10.54-40.72,28.41-60.62,43.21-15.61,11.6-36.64,11.86-54.52,5.91-14.56-4.94-30.23-7.9-45.38-3.74-13.65,1.4-26.42,10.89-40.34,7.28-17.71-5.39-19.3-28.18-34.94-36.18-15.9-8-34.07-8.09-51.23-11.21-8-1.3-16.13-5.46-19.7-13-4.68-11-4.19-23.6-10.08-34.06-14.17-22.18-44.73-26.69-57.57-50.1-6.37-11-4.61-24.28-.35-35.72,4.51-12.42,5.81-28-3.42-38.65-10.3-11.32-26.59-13.33-41-14.53,15.44-21.2,24.21-46.29,29.64-71.75,3-15.08,11.64-30.42,27.41-34.75,21.52-6,47.16-14.79,67.8-1.88,24,18.92,20,59-.42,79.12-14.33,11.28-36.05,15-52.53,6.34-10-5.43-11.15-17.91-9.56-28,7.06,4.81,12.26,12.87,21.2,14.47,7.09-1.76,17.49-5.73,17.19-14.44-4.48-12.58-19.95-21.39-32.73-15.41-14.17,6.77-28.74,18.53-30.82,35.08.36,18.56,19.9,28.64,36.41,29.12,27.14.14,50.78-16.31,69.79-34.16-3.67,52.33-.52,107.56,24.19,154.93,12.25,24.12,35.79,41,62,47,52.59,12.42,107.69,3.45,158.21-13.65,30.36-10,59.84-24.15,84.32-45,12.13-11,21.23-24.84,30.13-38.49C886.09,853.8,904.65,813,919.44,771c9.92-30.33,17.2-64.76,4.23-95.28-8.85-21-32.34-29.84-53.41-32.44-26.56-4.33-52.92,6.24-79.45,2.11-5.26,9-5,22.3,5.07,27.89,17.62,9.69,38.62,7.22,58,8.39-36,14.37-78.27,20.09-114.52,3.54-32.15-13.71-56.56-42.48-67.42-75.41,15.15,22,31,46.32,57.08,56.2,12.39,4,28.09,7.06,39.34-1.33,7.25-7.38-.85-16.81-4.52-23.76-17.84-4.29-35.49-13.39-45.47-29.32Z"/><path class="cls-2" d="M960.76,655.05c5.44-4,12-6,18.21-8.48-2.57,6-5,13.46-12.09,15.28C962.1,662.3,960.05,660,960.76,655.05Z"/><path class="cls-2" d="M957.77,739.7c10.5-4.06,22-.78,32.9-2.24-8,8.35-20.32,17-32.18,11.41C958.24,745.81,958,742.76,957.77,739.7Z"/><path class="cls-2" d="M551,772.17c14.86-11.5,34.56-14.07,52.83-14.88-13.59,4.58-30,7.9-36.12,22.75,5.37,7.28,19,2.63,21.49,11.93.36,19.6-15.44,33.68-21.32,51.23,16.09-11.08,34.32-21.33,44.59-38.58,2.8-5.34-5.49-7-7.86-10.18,8.45-13.68,25.51-18.56,40.76-18.21,11.64-.35,24.29,3.48,31.24,13.43-11.28-2.57-23.63-11.6-35-4.88-2.83,7.87-1.07,16.78-4.39,24.64-6.86,19.12-24.51,32-42.88,39-6.6,2.67-15.6,8.55-13.19,16.81,11.5.68,23.21,2,34.68.23,12.29-1.92,18.07-15.48,30.1-17.92,21.78-5.91,48,3.16,59.3,23.28-11.61-5.62-23.18-15.34-36.93-12.68-13.59,3-19.21,16.94-27.34,26.56-7.35,1.92-14.53-2.57-21.88-1.56-9.85,2.25-18.53,8.22-28.67,9.23-17.69,1.92-34.29-9.68-52-5.59-9.49,3-8.91,14.5-9.72,22.53-10.6-31.63-15.12-65.54-12.09-98.79,7.67,7.77,7.5,18.86,9.85,28.8,1.39,6.34,9.26,6.5,13.55,3,11.35-8.42,18.63-22.52,17.65-36.79-14.33-4.2-17.84-24-6.6-33.36Z"/><path class="cls-2" d="M368,843c9.23-7.58,27.21-2,27.73,10.82,1.2,8.75.81,20.13-8.52,24.32-20.12,11-46.74,15.73-57.37,38.55C332.08,888.48,343.72,859.16,368,843Z"/><path class="cls-2" d="M898.91,877.14c4.06-8.26,14.79-6.5,21.39-2.63,8.38,4.71,17.32,8.32,27.17,8.32-12.22,7.57-27.43,13.65-41.8,9.16C899.52,890.27,894.42,883,898.91,877.14Z"/><path class="cls-2" d="M442,959c11-3.84,23.08,6.21,20.31,17.85.36,8.91-7.18,14.17-14.69,16.77-16.84,7-37,12-46.35,29.32,1.49-26.33,16.8-52.17,40.73-63.94Z"/><path class="cls-2" d="M770.24,1028.72c-4.45-9.79,4.16-21.1,14.69-18,11.09,2.51,10.34,15.58,11.77,24.42.85,10.24,5.24,19.6,10.53,28.21-16.35-5.72-29.8-19.14-37-34.68Z"/><path class="cls-2" d="M513.63,1030.41a24.32,24.32,0,0,1,24.25-8.16c11,6,13.3,24.87,2,31.76-15.6,12.13-38.3,19.37-43.66,40.66-1.56-22.42,3-46.45,17.39-64.26Z"/><path class="cls-2" d="M630.26,1057c12.46-8.32,29.88,7.7,21.33,20.61-11.31,14.76-30.69,23.47-35.33,43-3.71-21.52-2-47.14,14-63.62Z"/></svg>