<svg id="katman_1" data-name="katman 1" xmlns="http://www.w3.org/2000/svg" viewBox="0 0 1133.86 1133.86"><defs><style>.cls-1{fill:#77b900;}</style></defs><title>Ati</title><path id="Nvidia" class="cls-1" d="M135.23,516.72S231.31,375,423.16,360.29V308.86c-212.5,17.07-396.51,197-396.51,197S130.87,807.18,423.16,834.77V780.1C208.67,753.12,135.23,516.72,135.23,516.72ZM423.16,671.38v50.06C261.05,692.54,216.05,524,216.05,524s77.84-86.22,207.11-100.21v54.94c-.1,0-.17,0-.25,0C355.06,470.59,302.06,534,302.06,534s29.71,106.7,121.1,137.41m0-457.38v94.86c6.23-.48,12.47-.88,18.74-1.1,241.59-8.14,399,198.14,399,198.14S660.1,725.73,471.76,725.73a277.33,277.33,0,0,1-48.6-4.29V780.1a319.92,319.92,0,0,0,40.48,2.62c175.27,0,302-89.51,424.75-195.46,20.35,16.3,103.66,56,120.78,73.3C892.48,758.26,620.51,837,466.32,837c-14.86,0-29.13-.9-43.16-2.25V917.2h666.19V214Zm0,209.82V360.3c6.17-.43,12.39-.77,18.74-1,173.72-5.45,287.7,149.29,287.7,149.29s-123.1,171-255.09,171a160,160,0,0,1-51.36-8.21V478.76c67.63,8.17,81.24,38,121.9,105.83l90.43-76.25s-66-86.58-177.29-86.58a328.33,328.33,0,0,0-35,2.06"/></svg>