<svg id="katman_1" data-name="katman 1" xmlns="http://www.w3.org/2000/svg" xmlns:xlink="http://www.w3.org/1999/xlink" viewBox="0 0 1133.86 1133.86"><defs><style>.cls-1,.cls-2{fill-rule:evenodd;}.cls-1{fill:url(#Adsız_degrade_2);}.cls-2{fill:#b3b3b3;}</style><linearGradient id="Adsız_degrade_2" x1="578.87" y1="-885.02" x2="2227.4" y2="720.12" gradientTransform="matrix(0.23, 0, 0, -0.23, 209.94, 560.78)" gradientUnits="userSpaceOnUse"><stop offset="0" stop-color="#9d141c"/><stop offset="0.6" stop-color="#c04215"/><stop offset="1" stop-color="#e4700d"/></linearGradient></defs><title>Ryzen</title><g id="Ryzen"><path class="cls-1" d="M475,345.76c8.79-3.57,12.31-7.84,22.89-8.11,3.83-4.18,16.28-5.71,18-10.18,1.29-3.31.56-3.65,4-5.59,4.06-2.3,10.71-3.09,15.86-2.86,8.35.38,14.66-2.15,16.36,1.78-2.62,1.15-4.36.68-6.44,2.56-2.32,2.11-.75.94-3.6,2.09-2.36,1-.55.51-2.28,1.5a7.07,7.07,0,0,0-6.28-4.62c-.5,0-9.39,1.62-9.69,1.71,1.6,8.58,8.53-3.23,13,9.79.1-.13.19-.52.23-.43s.17-.32.22-.41c1.23-2.22.22-1.3,1.28-2,1.36,1.9,2.42,5.91,4-.14,2.89,2.84,8.52,0,14.44-1.79,3.64-1.08,11.3-4.33,15.26-3.57-.52,3.12-4.71,3.79-5.26,6.87,2.71-.3,6.43-3.31,9.81-4.39,9-2.88,19-2.09,27.84-1.95,5,.08,10-.43,15,.09,2.34.21,4.54.68,6.75,1,4.43.6,15.68.55,18.23,5.08.08.15.29.65.35.79l.33.82c3.73-1,3.94-.59,7.67.24,16.14,3.61,2.52,4.72,11.09,8.11,12.3,4.87,22.57,12.73,24.76,13.72,4,1.78,3.44-4,13.34,3L720,369.93c8.77,5,15.13,17.71,19.21,19.1-2.39-3.61-12.07-12.67-11.83-17.89,7.72-2.5,14.11,9.94,19.68,17.46l15.1,23.93c2.19,2.62.79-.38,1.82,2.62,1.21,3.53,3.19,5.82,6.09,8.66,1.39,1.37,3.86,2.43,4.69,4.88,3.25,9.66,6.85,6.06,10,18.89,1.42,5.76,4.06,9.56,5,15.25,9.33,31.12,19.71,71,21.34,109.64a6.76,6.76,0,0,1,.93-.74c.32,3.42-.14,5.49.61,9a19.51,19.51,0,0,1,.21,8.78c-1.26,8.7,1.94,2.32-2.64,16.84l-.28.33a138.14,138.14,0,0,1-9.29,36.61c-8,24.72-10.26,35.51-24,56.84-4.2,6.53-.69,3.1-7.65,12.13L760,723.51c-4.3,6-1.75,4.47-8.88,11.45-3.09,3-7,6.56-9.27,11.23l-9.2,9.3c-1.92,1.6-2.47,1.3-2.52,4.19-3-1-.82-1-3.49,1.63-3.53,3.52-10.13,6.21-13,10.76-2.92-.41-2.77-1.17-5.6,1.7-.12.12-.42.47-.54.59l-.59.55c-.16.15-1,.76-1.31,1a22.69,22.69,0,0,0-2.35,2.36c3.29-.24,3.21-1.55,6,.17l2.26,1.14c-2.37,2-2,3.46-5.78,3.52,1.4-2.15,1.37-.8,2.51-3.17-2.88.37-4.47,1.83-6.9,3-1.31.64.44.13-1.06.3s1-.18-1.23-.06-2.13.6-3.52,2.4l-1.59,1.8a68.25,68.25,0,0,1-10,6.43c-3.47,2-5.21,2.39-8.49,5,0,2.44.88,2.29-.35,3.68l2.74.53c-4.56,3-2.56-1.81-8.18,3.05-1.49,1.29-1.43,1.09-1.78,3.48l9-3.14c-1.15.55-2.17,1.43-3.58,2.13-3.18,1.57-2.32.12-3.61,3.16-2.5-2.57-4,.4-5.44,2.88,2-.42,2.12-1.23,3.82-.57-1.14.53-3.56,1.11-4.53,2.32-1.59,2-.11,3.16-2.82,4.29l1.45-3.58c-4.63-.19-1.24,1.5-4.42,3.11-3,1.51-2.34-.41-5.23,2.67-1.86,2-1.35-.25-1.51,2.57s.65,2,2.23,3.49l1.12,1c1,.84.37.22,1.23,1.45,3.25.2,3.81-.17,4.9-1.64,1.63-2.18-1.17,0,1.16-1.62,3.17-.43,3.7.65,5.93,1.26,2-3.17,0-1,3.21-2.41a17.74,17.74,0,0,1,4.22-1.72c-.11.11-.25.14-.3.36-.29,1.22-2.29,2-3.16,2.76l-.3.27c-3.16,2.9-.86,1.89-5.87,2.18a1.27,1.27,0,0,0-.36,0v.65c.18,1.53,1,.46-.21,2.47-2.3,3.8-1.65.06-2.92,2.71.63,2.62,1.82,2.32,4.43,2.42l1,2.09c.18-.06.94-1.11,1-1.16,1.59-.79,2,.48,5.49-2,2.66-1.92,3.12-3.2,6.85-4.46,3.21-1.08,8.39-1.24,9.56-4.6.92-2.67-.53-.72-.09-3.44.09-.55.35-1.45.45-2.33l4.78-.95a7.29,7.29,0,0,1-1.74-1.36c.32-.32.58-.53.82-.77l1-1.07c-3.16.4-1.77.41-3.66,2.34l-1.59-2.78L689,821.07c-.61,1.1-.18.78-1.67,1.24,0-.11.15-.37.17-.3l.64-2.06c-4.11-.11-1.53,1.43-3.61,3.32-3.25,3-2.79-1.54-3.09,4.9-4.08,0-1.05,1.41-3.87,2.6-1.49-2.86,1.15.4-.25-1.83-.85-1.36.86.23-.8-.69-.11-.06-.31-.12-.42-.17s-.77-.22-.94-.3c.1-.13.25-.47.29-.38l1.29-1.86a3.07,3.07,0,0,0,.45-2.71c-3.74-1.08-7.63,3.77-11.1,3.92,1.9-1,9.11-5.88,11.71-6.1,4-.35-.25,2.51,9.37-2.09,4.75-2.27,4.22-1.95,2.13-6.2,1.92-1.45,4.35-1.91,6.77-3.12,1.61-.81,1.91-1.54,4.16-2-1.72,8.17-5.22,1-8.9,7.92,2.34,1.49-.48.3,2.71.52a11.14,11.14,0,0,1,2.64.5c-.18-1.85-.14-1.4-1-2.58l2.2-.69c.8,1.87-1.55,1.16,1.1,2.08.27-.47,2.54-5.53,2.76-6.18a.65.65,0,0,1,.27.39.74.74,0,0,0,.27.38c1.35,1.76,1.83,2,4.26,1.62l.78-.13.36-.05.35,0a3,3,0,0,0,.36,0,7.49,7.49,0,0,0-.83-4.43c-2.06-3.31-.8,1.36-1.92-1.79a13,13,0,0,1,4.7-2.29l1.13,2.52,4.42-2.47c-.73,3.33-1.92,1.71-4.27,4.22.57,1.73-.82.45,2,1.45-2.34,1.57-.52,1.29-2.12,3.87l-1.13-2.34-1.9,3c-1.05,2-1.88,2.64-4.88,3.08-.89-1.57-.66-2.31-2.36-2.89-1.36,4.16,1.55,5.88-5.51,4.88l1.24,6.32c4.2-.78,3.81-3.48,8.23-3.31.4-5.92.32-3.73,5.18-4.07,2-2.35,1.06-3.62,6.07-3.42-.55,2.42-.63,1.93-2.34,2.84l1.31.81c1.14.83.59-.11,1.3,1.14l-4.1,1.2.65,1.42c0,3.52-1.3-2.19-.07.8,3.71-1.06,3.68-1.63,7.22-.16l1.07-3.15c4.34.31,4.85-1.26,6.57.78-3.72,1.12-9.43,3.52-13.76,5.19s-9.77,4.3-14.21,5.28c.33,3.1,1.21.52,0,2.53-4.26.34,0-.19-2-1.06-1.3-.56-1.46-.09-2.33.67-2.84,2.47-.72,1.37-5.05,2.27-3.5.73-6.49,3.12-10.19,4.48-7.47,2.74,1.6,1.48-9.66,3.92-8.44,1.83-5,2.82-9.31,5.07a3.23,3.23,0,0,0-.44.2c2.48-.29,2.93-1.35,4.06-.66-2.44,3.2-10.4,3.38-12.07,3.67-2.73.48-10.65,2-11.63,4.24,2.12,1,4.19-.62,7.22-.55-1.52,2.17-2,.84-4.94,3.36l-1.86,1.83c9.38-1.44,8.75-3.75,10.61-5.5,1.38-1.29,2.09-1,3.51-2l.81.5c2.37,1.59,2.92,2.07,8.65.46,6.27-1.76,3.71-1.33,5.71-2.9a2.76,2.76,0,0,1,2.39-.74l-1.9,1.85,4.12.15-.84,2.48c-.27,1.66,1.1,1.66-1.45,2.52-3.45,1.16-5.07-.26-7.93-.77-3.44-.62-4.22.59-6.68,1.46-2.75,1-13.29,1.88-20.55,6-1.4.79-4,2.28-5.44,3-4,2.06-6,1.82-6.42,4l.31,3.33c1.31,2.36.09.27,1.12,1.3,1.26-1.16,1.47-.4.83-1.89-1.11-2.58.37,1.93-1.4-1.09,2.16-.78,2.74-1.65,4.53-2.83.51.85.78-.29.26,2-1-1.48-.25-.92-2.22-.6l-.1,4.21c3-.73,4.53-2.44,6.35-4.08,3.35-3,2.63-2,6.78-2.19a3.18,3.18,0,0,0-1-2.77l4.47.27c-.34,2.5-1.59,2.13-1.43,5.29,4.78-.34,12.26-2.44,16.76-3.76,3.09-.9,5.38-1.66,8.11-2.68,3.68-1.38,5.67-1.12,4.49-5.29L672,861.63c-1.91-.16-1.82,0-3.1-1.24.77-1.29,5.23-2.56,7-3.4,4.45-2.1,4.7-1.32,6.8,1.71,2-.31,2.5-.77,4.35-1.3,3.14-.91,3.31.08,5-.25,7.52-1.48,5.19-4.06,9.87-4.49,6.33-.58,3.3-2.33,7.29-3a8.79,8.79,0,0,0,3.47-1.29c2-1,4-2.06,6-3.14,5-2.75,4.56-1.31,5-3.65,7-1.36,6.39.4,14.42-4.86L773.66,813c.65.78,1.05,1.46,2.29,1.52s1.21-.43,2.6-1c-.91,2.93-1.63,1.38-2.34,3.61,1.38-.27,15.17-13.3,16.43-14.63,4-4.28,8.48-5.94,17-15.17,3.42-3.7,6-2.43,9.75-6.07a77.78,77.78,0,0,0,7.65-8.17c3.48-4.52,2.21-5.79,8.08-7.82,2.74-.95,5.5-6.56,7-9.25.06-.13.08-.51.09-.42s.06-.34.07-.42c.53-2.54,0-.85,3.45-4.13,2-1.94,3.09-2.63,4.62-5.55,3-5.65,4.89-8.46,11.37-7.8,4.27-11.69,8.86-14.6,12.6-24.66,2.29-6.18,2.6-2.65,4.87-7.55,2.65.52.85.08,2.83,1.87l5.32-17c.63-1.53,2-3.35,2.92-5,1.45-2.66.42-9.22.64-13.19.16-2.85,1.1-2.91,2.06-5,1.07-2.35.88-4.24,1.57-6.36.63-1.92,1.62-2.55,2.58-4.75.65-1.49,1.16-3.76,2.13-5.22,3.13-4.72,6.44-4.8,5.17-9.48-1.45-5.36-3.81.28-.75-10.42,4-14,3.49-5,6.31-9.19.45-4.71,1-9.11,1.73-13.8l1.45-22.81c-.11-4,1-3.81,1.46-6.91.88-6-1.31-3.26,1.4-6.65,1.66-2.08,1.83-3.82.76-6.84-.64-1.83-2.27-3.63-2.77-5.23l-1.42-14.44c.56-3,2.25-2.74,2.71-5.79.36-2.42,0-5.08.94-7.08,1.83-3.88,1.6-1.5,1.24-6.46-.2-2.7.47-5.37.34-7.25-.33-4.51-1.47.94-.54-6.78-.95-1.15-2.68-1.93-3.12-3.66-.61-2.38.52-3.05-.54-6.3l-3.05-17.29c-.22-3.8.17-2.71-1.36-5.44-1.94-3.46-1.7-7.86-3.08-10.52-1.34-3.42-1.35-2-1.61-6.4a22.63,22.63,0,0,0-1.6-6.77c-2.67-7.19-1.75-7.76-5.18-12,.8-2.45,1.6-1.72.78-3.9-.4-1.09-1.53-2.49-2-4.22-1.06-3.74.6-2.16-2.23-10.18-.64-1.84-1.29-2.76-1.87-4.33s-.64-3.44-1.35-4.92-1.72-2.13-2.63-3.59a21.69,21.69,0,0,1-2-4.25l-2.58,0c.83-2.69,2.4-3.2,1.32-6-.89-2.31-2.46-2.71-3.52-4.43-3.76-6.15-.13-6.87-7.8-15.95-3.94-4.65.91-1.92-9.38-14.91s-3.52-8.78-8.24-15.5c-1.22-1.73-1.82-3.3-3.08-4.84-1.61-2-2.48-1.57-4.28-3.64-3.87-4.45-1.81-1.75-4.14-3.76-2-1.67-1.31-3-3-4.94-1.3-1.54-3-1.75-5.18-3.09-1.1-4.3,2.5-6.05-2.48-8.48-3.69-1.81-3.84-2.69-6.06-5.8-2.89-4-6.34-10.94-12-11.57l-.4-.89c-.87-1.9-.07-1.39-1.53-2.42-1.11-.78-2.56-.63-4.24-.74-1.58-5.22-3.49-5.57-6.68-8.67s-13.36-10.51-17.56-12.94c-2.74-1.58-2.38-2.34-4.36-3.61s-3.19-1.57-5.07-2.79c-3.54-2.31-6-3.72-9.36-5.9a22,22,0,0,0-5.15-2.82c-2-.71-4.71-.54-6.29-1.51-3.43-2.1,1.81-2.72-19.13-12-3.36-1.48-29.28-12.73-31.26-15.13s-.49-2.51-4.42-3.45c-2.36-.56-4.2-.81-6.49-1.44-3.73-1-8.18-2.21-12.22-3-6.47-1.23-7.38.26-12.7-3.18-3.45-2.23-8-2.14-12.49-2.71-9.1-1.17-11.88.1-14.79-.33-3-1.52-11-1.87-15-1.18-7.05,1.23-13.13-2.33-22.64-.73-4.21.71-3.49.1-6.69-.82-3.35-1-46.55-1.67-49.93-1.41-8.68.68-14.67-2-22.94.2-3.19.85-2.48,2.41-4.78,4.24-5.06-.22.34-1.58-5.07-1.53-3.25,0-2.26,1.27-5.11,1.55-19.12,1.85-9.9,2.48-15.26,3.49-3.84.72-7.26.11-13.45,4.78-1,.21-9,2.32-9.49,2.57-1.71.89-1.35,1.78-4.18,2.05-2.49.23-7.86-1.49-15.13,1.83-3.42,1.56-3.8,4.37-7.5,4.79-4,.46-6.13,1.63-9.78,2.24l-10.48,2c-1.06.52-1.95,1.74-3.16,2.47-3.63,2.21-6.45.56-10.44,8.08-4.08.1-6.13-.95-9.83,1s-3.33,3.29-4,7.91c-5.59,1.81-11.62,3.39-14.3,7.28-2.68.15-6.51,2.52-8.54,4.87-6,6.94-3.71,4.43-8.42,5.59s-4.65,5.44-6.94,6.67c-3.89,2.08-3.69-1.1-7.58,4.4-1.51,2.13-1.13.22-2.91,2.72-4.93,6.9-5,2-14.29,10l-12.89,10.81c-1.44,1.32-1.07.76-1.91,2.41-1.17.31-.3-.18-1.61.87l-4.08,4.41c-4,4.39-2.39,1.21-5.57,6.28C305.5,335.56,301,337,295.85,343c-3.63,4.29-7.15,7.81-10.45,12.72a7.5,7.5,0,0,1-2.69,2.88c-1.48,1.2-6.8,7.46-6,11.08-5.39.13-3.28,3-7.95,9s-10.23,15.13-14.49,20.54c-2.91,3.68-4.8,5.66-6.9,10.83-3.54,3.38-9.29,12.72-10.73,17.84-1.08,3.86-2,7.51-2.91,11.17a41.41,41.41,0,0,1-2,5.44c-1.33,3.22-.75,2.73-1.22,6.16s-1.28,1.55-1.79,5.15c-.44,3.13-.23,2.92-1.44,5.69-2.8,6.41-.06,8.87-1.05,11.41-.31.8-2,2.57-2.72,4.05-1.43,2.78-.69,3-1.3,5.92-.52,2.49-5.12,8.34-1.51,9.94-2.42,1.64-2.19,1.6-2.58,5.1-.47,4.12-1.17,16.29,2,19.23l1.45,1c-5.62,7.79-4.27,8.65-3.83,17.35.18,3.46-.91,4-.93,7.33,0,4.87,1.19,9.53,1,14.71s-1.14,9.7-.49,14.9c.85,6.76,5.72,16.05,8,23.21,2.86,9,4.8,14.69,6.21,24.72.55,3.92,2.88,9.66,2.47,12.74-.86,6.46-5,4.77-.34,11.26,4.13,5.73,2,18.31,6.53,28,1.56,3.31-.8.52,1.64,5.08l3.74,8.13c1.69,3,.72,3.78,1.83,6,1.43,2.9,6.31,7.92,9,14.16,1.46,3.37,1.57,1.87,4.2,3.78-.51.37.37-.07-1.13.65a10.44,10.44,0,0,0-1.14.49c.1,5.78,1.56,4.39,2.41,6.43.68,1.64-1.09.77.73,2.82,1,1.18,1.05.05,2.48,2.05-.91.76-1.82.52-3,.36.22,3.65,9,15.45,12,17.19,3.26,1.92.78,1.52,3.48,3.91a27.76,27.76,0,0,1,4.11,3.8c1.82,2.15,5.34,6.4,6.49,8.79l2.43-2.47c.62,3.73.74,3.73,2.93,5.56,2.55,2.14,2.1,3.64,3.62,4.85,2.48,2,3.66-.19,5.44,3.07.94,1.7,1.34,4.44,2.41,6.08,1.57,2.4,6.6,5.46,8.82,8.1,2.48,2.94,5.47,7.55,7.79,9.72,1.79,1.66,1.4.48,2.77,1.69l.77.93a8.32,8.32,0,0,0,1.18,1.11c1.58,1.35,4.08,5.34,8.05,8.93l8.58,8.32c1.66,1.6,2.15,3.43,3.69,4.83l11.46,10c1.91,1.75.64.6,2.85,1.69,2.94,1.45,1.71,2.75,3.7,4.76,1.05,1.06,3.49,2.25,4.86,3.61,3,3,4.64,6.64,8.13,8.83,3.8,2.39,8.69,7.89,14.08,11.91,6.28,4.67,8.07,11.42,19.76,14.13l20.47,5c4.21,1.18,4.58.2,8.33.58,1.78,1.27,1.44,1.89,3.12,3.14,1.06.79,2.92,1.41,4.13,2.13,3.65,2.17,7,1.05,9.83,2.58,1.44.79,1.91,2.1,3.12,3.09,1.82,1.48,2.28.95,4.35,1.89,3.19,1.43.91,3.16,7.85,5.13,8.68,2.46,13.34,1.84,22.57,1.46,7.67-.32,11.63.95,13.68-2.62.7-1.24-1.71.22.58-.74,2.67-1.11,1.46,2.4,1.29,3.72,3.61.66,14.23.55,17.71-.38,8-2.12,16.78-1.44,24.42-4.95,6.08-2.79,5.44.41,14.43-5.39,3.4-2.19,4.43-1.62,8.7-1.68a8,8,0,0,1,7.74-5.65c.9,1.46.35,2.47,1.13,3.8,3.72-4.81,1.41-3.39,1.8-8.2,3.62-1.79,7-4,10.41-6,2.61-1.52,3.39-.34,5-2.89,1-1.63,2.15-3.94,3-5.46,2.91-5.11,5.71-5.08,8-8.41,1.38-2,1.31-3.33,3.12-5.36,4-4.48,0-8,5.53-19.35,5.88-12-4.39-9.44-6.17-15.62-1.14-4,3.7-8.14-1.42-12.17-2.87-2.27-2.86-.13-6.7-.48-2.9-1.51-4.35-5.28-6-7.48-2.67-.41-4,0-6.27-.2l-3.29-2.31a3.26,3.26,0,0,0-.22-.38c-10.79,1-7.49-3.75-10.57-5.12-4.58-.32-8-.45-12-1.55-5.29-1.44-5.87-3.23-10.17,0-4.51-2.25-7.61-.5-12.33-1.26-5.59-.9-6.66-.33-11.79,1.39-1.17,8.25-5.16,6.27-6,2.7,0-.19-.15-.79-.19-1l-.23-.9c-5.75.06-11.62,1.29-12.94-4.44,1.28-1.68,1.88-1.8,4-2.69l3.76-1.24c1.18-.42.76-.17,1.31-.59-2.19-1.66-2-.77-4.66-.48-2.37.25-3.71-.23-6.14,0-1.27,1.75-2.15,4.2-3.44,6-5.56.72-5.74-2.57-7.57-5.91-1.21-2.21-5.58-4.07-8.74-4.77-.72,4.43.39,5.09-3.88,6.29-7.83,2.19-9.26-1.47-14-6.06-2.64-2.58-4.78-1.42-7.83-2.88l-6.54-3.66a71.5,71.5,0,0,1-6.31-4.42,173.76,173.76,0,0,1-22.32-19.49c-2.83-2.92-7-9.47-9.67-11.25-5-3.32-3.55-4.84-6.72-8.53-1.5-1.76-2.1-1.42-3.26-2.41-1.65-1.41-.63-1.28-1.67-3.36s-1.4-1.53-2.89-2.8c-1.82-1.53-2.78-4-4.87-6-4.81.15-4.54.2-8.07-3.66a77.1,77.1,0,0,1-5.78-7.22l-5.83-7.15c-2.07-3.11-1.1-6.89-5.21-8.53-.24,3.48.18,5.32.1,8.18-3.81,2.71-5-.38-8.81-4.39-2.82-3-4.84-5.4-7.94-8.44-9.89-9.68-9.31-10.7-10-22.79-1.19,1.19-.37.61-.94,1.6-1.39,2.42.66,1-1.73,1.86-1.82-1.22-.62-.19-1.49-2.65-1-2.82-3.24-4.87-3.37-8C329.41,616.8,314.65,569.72,321.73,519c.59-6.75.3-4,4.39-5.52,2-6.1,2.74-28.34,3.44-31.56,1.61-7.37,9.22-23.54,9.31-25.65,4-3.83,1.73-6.91,12.08-15.19,3.31-2.65,4.28-3.05,6.81-6.74,2.05-3,3.67-5.05,5.61-7.94s4.31-4.52,6.62-6.95c6.57-6.89,3.49-5.53,10.25-10.11,1.59-1.09,3.33-1.69,4.35-2.38l6.38-7.48,12.66-10.81L438,364.86c2.54-1.51,5.48-2.65,7.63-4.19l.27-1c0-.13.2-.75.26-.91.7-1.81,1.18-1.92,4.82-3.6,2.65-1.22,4.91-2.23,7.77-3.48,4.5-1.95,13.29-3.52,16.26-5.94ZM602,323c2.77-.49,1.82-1.08,4.66-1.83a49.65,49.65,0,0,1,5.53-.81l.38-1.81c-7.43-7.18-9.14-1.18-13.65-3.34-5.81-2.79-10.45-.55-15.57-2.1-2-.61-5.6-4.21-13.84-1.38-4.87,1.68-10.81-.23-16.88-.17l1.57,5.53c2-.23,9.66-1.69,11.35-.81-1.33,2.35-4.42,1.45-8.49,1.54-3.69.1-2.43.17-2.76.57-2.74,5,8.63,3.45,11.8,2.94,11.6-1.88,10.26-3.61,12.55,1a24.34,24.34,0,0,0,6.85-.34c3.35-.43,7.72,2,13.59,1.4,3.5-.38.8-1.61,2.91-.43ZM386,726c-1.34-.73-.67-2-2.19-3.87-5-6.1-1.9.38-4.59-9.5-.72-2.63-1.72-3-2-5.47l3.46-2.24c-.55-2.95-.62.28-2.24-6.18-.6-2.4-2.15-3.34-5-3.25-2.95,4.16-1.95,6.72-5.35,7.78a27.28,27.28,0,0,1-1.54-4.16c-.9-3.34,0-.78,1.11-3.65-9-1.18-6.52,3-3.39,7.16,2.34,3.09,4.27,6.36,6.47,8.78,2.39,2.63,12.38,14.54,15.2,14.6Zm328.4,106.75c.08-2.77.11-1.24.85-2.13l1.53-1.26c-2.16-1.25-6.9,4.51-8.34,5.68-2.16,1.75-7.43,5.06-11.18,3.36,1.08-1.09,5.17-2.1,6.77-2.69-.86-.62.07-.3-1.37-.55a5.71,5.71,0,0,0-2,0c-14.27,1.33-8.13,6.62-19.34,11.74,3.05,1.89,10.13-2.71,12.19-4.16,3.91-2.74,9.57-2.36,14.66-1.06-2.31,2.18-2.36.7-4.49,1.84,4,3.41,7.31,1.44,9.88-1.7-1.31-.85-2.27.51-4.95-1.84,1-2,21.43-11.75,24-13.78-8.73-.59-5.88,2.1-9.7,3-5.17,1.19-5.14,5.44-8.47,3.6Zm-21.13-40.58-.56,3c1.91.44,1.39.08,2,.11,1.93.07.87-.33,1.74.21-1.33,2.55-.72-1.72-3.64,1.85-2.7,3.32-1.31.91-4,2.87a2.81,2.81,0,0,0-1.26,2.14l.14,1.95c.49,2.13.81,2.7,3.76,4.14,1.31-1.52,1.61-1.81.41-3.34.14-.08.37-.31.44-.18a2.62,2.62,0,0,0,1.94-1.52l-2.73-.38c5.41-1.55,5.74-.39,11.34-3.47,3.34-1.83,6.28-4.11,9.42-5.87-2.55-1.29-1.59,1-2.89-1.58.65-1.28.44-.61,1.19-1.31.41-.39.14.3,1.15-1l-6.1,2.79c-.88-1.68-2.51-3.72.92-3.79,3.16-.07,4,1.14,4.82-2.66l-10.45,3.44c-2.32,1-.23-.52-2.11,1.35-4.13,4.11-2.77,2.73-5.54,1.26Z"/><path class="cls-2" d="M25.7,499.4H97.46c8.84,0,68.27-1.24,71.19.74,1.58,1.71,1,5.38,1,8.5,0,5.27.89,24.43-1,26-3,1.5-127.94.63-143,.63V643.43l36.06,0v-72l66.31-.09,41.63,72.07,41.5,0c-2.32-6.46-39.72-67.5-40.9-72.06a35.44,35.44,0,0,0,27.18-13c7.94-9.23,8.35-17.75,8.35-32.22,0-23.38,4.38-47.87-21-59.68-10-4.67-24.74-3.3-37.07-3.3H25.7V499.4Zm439.37-.22,124.3.22c-1.5,2.41-14.65,13.1-17.89,16-2.8,2.49-5.79,5.12-8.8,7.57l-44.95,38.69c-14.58,11.83-30.21,26.71-44.63,38.42-1.64,1.33-2.92,2.63-4.58,3.9-1.83,1.39-3.26,2-3.45,5.21-.61,10.5.05,23.32,0,34.08l180,.06V607.4l-124.35-.12c1.27-2.15,14.51-12.95,17.41-15.59s5.72-4.9,8.83-7.55,6-5.38,9.11-7.85l13.41-11.45c15.56-13.68,35.62-29.85,49.75-42.92l17.9-15.44c4.08-3.32,7.81-5.54,8-9.09.49-9.76.37-24.2-.12-34-14.41-.64-30.14-.07-44.69-.07-20.15,0-131.36-.88-135.25.41l0,35.45ZM1110,643.31V463.24h-35.77l-.29,124.17c-3-1.62-58-66.81-62.52-71.73-12.08-13.21-26.94-32.45-38.67-45-1.35-1.44-2.57-2.84-4-4.52-1.56-1.87-1.56-3-5.09-3-10.66-.08-23-.45-33.54.1l-.29,179.75,36.19.26V519c2.42,1.58,82.28,95.07,94,108.55l13.81,15.66,36.16.1Zm-414.66,0,180,.15,0-36.14-65.56,0-78.08-.06-.22-35.82,77.67-.05,66.28-.24,0-35.87-69.58.08-110.43-.1v108Zm-351.3,0,6.42-.11c.12-34,.2-28,0-66.22-.05-7.93,1.91-8.59,9.09-18.18,4.27-5.71,67.9-93.09,68.71-95.5H383.78l-51.27,70.82c-1.7-1.81-9.85-12.82-10.64-14.9-2.67-2.35-7.91-10.66-10.34-13.91-3.56-4.73-6.74-9-10-13.71-2.57-3.68-19.21-26-19.7-28.1l-44.89-.2c.73,2.35,48.12,67.73,53.55,74.94,4.72,6.28,9,12.57,13.52,18.68,2.43,3.3,4.28,6,6.62,9.2,4,5.44,3.83,4,3.81,12.56-.05,20.82-.92,43.87,0,64.42l29.6.22Zm351.34-180-.11,36.11,104.51,0,75.6-.22-.27-36.19-179.73.24Z"/></g></svg>